<svg xmlns="http://www.w3.org/2000/svg" width="12" height="12" viewBox="0 0 12 12">
  <g id="artist" transform="translate(-14.337 -21.5)">
    <g id="Group_3154" data-name="Group 3154" transform="translate(14.337 21.5)">
      <path id="Path_4167" data-name="Path 4167" d="M23.179,21.5a3.147,3.147,0,0,0-3.135,2.92l3.373,3.373a3.15,3.15,0,0,0-.238-6.293Zm-3.866,3.975L14.48,31.382a.632.632,0,0,0,.042.846l1.087,1.087a.632.632,0,0,0,.846.042l5.908-4.833Zm.076,2.341a.632.632,0,0,1,.447,1.078l-.632.632a.632.632,0,0,1-.893-.893L18.943,28a.629.629,0,0,1,.447-.185Z" transform="translate(-14.337 -21.5)" fill="#222"/>
    </g>
  </g>
</svg>
