<svg id="Cart" xmlns="http://www.w3.org/2000/svg" width="20.77" height="19.221" viewBox="0 0 20.77 19.221">
  <g id="Group_3158" data-name="Group 3158">
    <path id="Path_4175" data-name="Path 4175" d="M6.431,11.466a.769.769,0,1,0,0,1.538H7.876a.377.377,0,0,1,.368.276L11.52,24.419a2.311,2.311,0,0,0,2.212,1.655h8.439a2.315,2.315,0,0,0,2.225-1.7l2-7.323a.769.769,0,0,0-.742-.972H10.671L9.72,12.846h0a1.927,1.927,0,0,0-1.842-1.38ZM14.12,27.612a1.538,1.538,0,1,0,1.538,1.538A1.538,1.538,0,0,0,14.12,27.612Zm7.688,0a1.538,1.538,0,1,0,1.538,1.538,1.538,1.538,0,0,0-1.538-1.538Z" transform="translate(-5.652 -11.466)" fill="#a6a7a8"/>
  </g>
</svg>
