<svg xmlns="http://www.w3.org/2000/svg" width="20" height="20" viewBox="0 0 20 20">
  <g id="Group_22534" data-name="Group 22534" transform="translate(-18 -589)">
    <rect id="Rectangle_7336" data-name="Rectangle 7336" width="20" height="20" rx="5" transform="translate(18 589)" fill="#fff"/>
    <path id="Path_17766" data-name="Path 17766" d="M22.176,13.264l-.965-.992a.207.207,0,0,0-.153-.066h0a.2.2,0,0,0-.153.066l-6.687,6.737-2.434-2.434a.212.212,0,0,0-.307,0l-.976.976a.218.218,0,0,0,0,.312l3.07,3.07a.971.971,0,0,0,.641.312,1.017,1.017,0,0,0,.636-.3h.005l7.329-7.367A.234.234,0,0,0,22.176,13.264Z" transform="translate(11.664 582.273)" fill="#2f2e3a"/>
  </g>
</svg>
