<svg xmlns="http://www.w3.org/2000/svg" width="14.6" height="19.35" viewBox="0 0 14.6 19.35">
  <g id="Group_4514" data-name="Group 4514" transform="translate(-26.022)">
    <path id="Path_4356" data-name="Path 4356" d="M38.966,0H27.739a1.715,1.715,0,0,0-1.717,1.643V18.25a1.273,1.273,0,0,0,.217.738.84.84,0,0,0,.693.361,1.252,1.252,0,0,0,.8-.335L32.75,14.75a1,1,0,0,1,1.219,0l5.006,4.264a1.208,1.208,0,0,0,.777.336c.441,0,.87-.34.87-1.1V1.643A1.661,1.661,0,0,0,38.966,0Z" transform="translate(0)"/>
  </g>
</svg>
