<svg xmlns="http://www.w3.org/2000/svg" width="18.601" height="19.876" viewBox="0 0 18.601 19.876">
  <g id="Group_4468" data-name="Group 4468" transform="translate(-22.776 -21.5)">
    <path id="Path_4355" data-name="Path 4355" d="M38.035,21.5H23.567A2.141,2.141,0,0,0,21.5,23.708V39.168a2.141,2.141,0,0,0,2.067,2.208H38.035A2.141,2.141,0,0,0,40.1,39.168V23.708A2.141,2.141,0,0,0,38.035,21.5Zm-3.1,15.459H26.668a1.071,1.071,0,0,1-1.033-1.1h0a1.071,1.071,0,0,1,1.033-1.1h8.267a1.071,1.071,0,0,1,1.033,1.1h0A1.071,1.071,0,0,1,34.935,36.959Zm0-4.417H26.668a1.071,1.071,0,0,1-1.033-1.1h0a1.071,1.071,0,0,1,1.033-1.1h8.267a1.071,1.071,0,0,1,1.033,1.1h0A1.071,1.071,0,0,1,34.935,32.543Zm0-4.417H26.668a1.071,1.071,0,0,1-1.033-1.1h0a1.071,1.071,0,0,1,1.033-1.1h8.267a1.071,1.071,0,0,1,1.033,1.1h0A1.071,1.071,0,0,1,34.935,28.126Z" transform="translate(1.276)" fill="#a6a7a8"/>
  </g>
</svg>
