<svg id="_159-cambodia" data-name="159-cambodia" xmlns="http://www.w3.org/2000/svg" width="28.206" height="18.48" viewBox="0 0 28.206 18.48">
  <path id="Path_3247" data-name="Path 3247" d="M27.719,106.756H.486A.486.486,0,0,1,0,106.269V88.762a.486.486,0,0,1,.486-.486H27.72a.486.486,0,0,1,.486.486v17.507A.486.486,0,0,1,27.719,106.756Z" transform="translate(0 -88.276)" fill="#41479b"/>
  <rect id="Rectangle_337" data-name="Rectangle 337" width="28.206" height="9.726" transform="translate(0 4.377)" fill="#ff4b55"/>
  <path id="Path_3248" data-name="Path 3248" d="M148.112,188.9v-.69h-.23v-.46h-.23v-.46h-.23v-.46h-.689v-1.379h0l.23-.23v-.689h-.23v-.46h-.23v-.689h-.23v-.46h-.23v-.46h-.23v-.23h-.46v.23h-.23v.46h-.23v.46h-.23v.689h-.23v.46h-1.379v-.689h-.23v-.69h-.23v-.689h-.23V182h-.23v-.46h-.23v-.23h-.115v-.23h-.23v.23h-.115v.23h-.23V182h-.23v.46h-.23v.689h-.23v.69h-.23v.689h-1.379v-.46h-.23v-.689h-.23v-.46h-.23v-.46H138v-.23h-.46v.23h-.23v.46h-.23v.46h-.23v.689h-.23v.46h-.23v.689l.23.23h0v1.379h-.689v.46h-.23v.46h-.23v.46h-.23v.69h-.23v.689h13.33V188.9Z" transform="translate(-127.574 -175.972)" fill="#f5f5f5"/>
</svg>
