<svg xmlns="http://www.w3.org/2000/svg" width="20.945" height="19.898" viewBox="0 0 20.945 19.898">
  <g id="Group_22576" data-name="Group 22576" transform="translate(0 -1.5)">
    <path id="Path_17793" data-name="Path 17793" d="M10.472,1.5C4.7,1.5,0,5.728,0,10.925a8.713,8.713,0,0,0,1.664,5.1C1.458,18.305.905,20,.1,20.8a.349.349,0,0,0,.247.6.327.327,0,0,0,.049,0A18.649,18.649,0,0,0,6.2,19.53a11.363,11.363,0,0,0,4.274.82c5.775,0,10.472-4.228,10.472-9.425S16.247,1.5,10.472,1.5ZM5.585,12.322a1.4,1.4,0,1,1,1.4-1.4A1.4,1.4,0,0,1,5.585,12.322Zm4.887,0a1.4,1.4,0,1,1,1.4-1.4A1.4,1.4,0,0,1,10.472,12.322Zm4.887,0a1.4,1.4,0,1,1,1.4-1.4A1.4,1.4,0,0,1,15.36,12.322Z" fill="#171717"/>
  </g>
</svg>
