<svg id="Music" xmlns="http://www.w3.org/2000/svg" width="15.935" height="18.218" viewBox="0 0 15.935 18.218">
  <g id="Group_3155" data-name="Group 3155" transform="translate(0 0)">
    <path id="Path_4169" data-name="Path 4169" d="M32.377,17.2a.759.759,0,0,0-.1.006l-.016,0-.022,0L22.4,18.725a.759.759,0,0,0-.651.751V29.5c0,.9-.1,1.358-1.894,1.358-1.978,0-2.659,1.154-2.659,2.282,0,.917.536,2.276,2.656,2.276,2.374,0,3.415-1.455,3.415-2.743V22.845l8.347-1.361v6.5c0,.9-.1,1.359-1.894,1.359-1.978,0-2.659,1.153-2.659,2.281,0,.917.536,2.276,2.656,2.276,2.374,0,3.415-1.6,3.415-2.887V17.959a.759.759,0,0,0-.759-.759Z" transform="translate(-17.2 -17.2)" fill="#a6a7a8"/>
  </g>
</svg>
