<svg xmlns="http://www.w3.org/2000/svg" width="16" height="16" viewBox="0 0 16 16">
  <g id="Group_4345" data-name="Group 4345" transform="translate(-17.2 -17.2)">
    <path id="Path_4337" data-name="Path 4337" d="M29.052,17.2a.593.593,0,0,0-.074.006h0l-.043.007-7.67,1.179h0a.593.593,0,0,0-.507.586q0,.009,0,.017v7.811c0,.7-.081,1.06-1.479,1.06-1.544,0-2.076.9-2.076,1.782,0,.716.418,1.778,2.074,1.778,1.854,0,2.667-1.136,2.667-2.142V21.609l6.519-1.062v3.207a5.074,5.074,0,0,1,1.185,0V17.793a.593.593,0,0,0-.593-.593Zm0,7.7A4.148,4.148,0,1,0,33.2,29.052,4.148,4.148,0,0,0,29.052,24.9Zm0,1.778a.592.592,0,0,1,.593.593v1.185H30.83a.593.593,0,1,1,0,1.185H29.644V30.83a.593.593,0,1,1-1.185,0V29.644H27.274a.593.593,0,0,1,0-1.185h1.185V27.274a.592.592,0,0,1,.593-.593Z" transform="translate(0 0)" fill="#fff"/>
  </g>
</svg>
