<svg id="product" xmlns="http://www.w3.org/2000/svg" width="19.273" height="19.962" viewBox="0 0 19.273 19.962">
  <g id="Group_3156" data-name="Group 3156">
    <path id="Path_4171" data-name="Path 4171" d="M20.415,5.733a.686.686,0,0,0-.487.2l-4.617,4.617h1.947l3.157-3.157,3.157,3.157h1.947L20.9,5.935a.686.686,0,0,0-.487-.2Zm-8.26,6.195a.689.689,0,0,0-.688.688v1.377a.689.689,0,0,0,.688.688h.114l1.07,6.421A1.378,1.378,0,0,0,14.7,22.253h8.471V17.435A2.059,2.059,0,0,1,26.486,15.8l.011.008L28.173,17l.387-2.32h.114a.689.689,0,0,0,.688-.688V12.617a.689.689,0,0,0-.688-.688Zm13.089,4.81a.688.688,0,0,0-.7.762V23.63a.689.689,0,0,0,.688.688.679.679,0,0,0,.5-.22h0l1.295-1.53L28.4,25.314a.688.688,0,1,0,1.231-.616l-1.4-2.8,2.007-.36v-.012a.667.667,0,0,0,.179-1.214l0-.013L25.716,16.94a.688.688,0,0,0-.472-.2Z" transform="translate(-11.467 -5.733)" fill="#a6a7a8"/>
  </g>
</svg>
