<svg id="Group_4466" data-name="Group 4466" xmlns="http://www.w3.org/2000/svg" width="11.194" height="13.417" viewBox="0 0 11.194 13.417">
  <path id="Path_4247" data-name="Path 4247" d="M90.263,6.463a3.127,3.127,0,0,0,2.285-.947,3.127,3.127,0,0,0,.947-2.285A3.127,3.127,0,0,0,92.548.947a3.231,3.231,0,0,0-4.57,0,3.127,3.127,0,0,0-.947,2.285,3.127,3.127,0,0,0,.947,2.285A3.127,3.127,0,0,0,90.263,6.463Zm0,0" transform="translate(-84.751 0)" fill="#171717"/>
  <path id="Path_4248" data-name="Path 4248" d="M11.166,251.152a7.981,7.981,0,0,0-.109-.848,6.679,6.679,0,0,0-.209-.852,4.209,4.209,0,0,0-.35-.795,3,3,0,0,0-.528-.689,2.329,2.329,0,0,0-.759-.477,2.623,2.623,0,0,0-.969-.175.983.983,0,0,0-.525.223c-.157.1-.342.221-.547.353a3.136,3.136,0,0,1-.708.312,2.749,2.749,0,0,1-1.732,0,3.128,3.128,0,0,1-.707-.312c-.2-.13-.388-.249-.548-.353a.982.982,0,0,0-.525-.223,2.619,2.619,0,0,0-.969.176,2.328,2.328,0,0,0-.759.477,3,3,0,0,0-.528.689,4.219,4.219,0,0,0-.35.795,6.7,6.7,0,0,0-.208.852,7.953,7.953,0,0,0-.109.848c-.018.257-.027.523-.027.792a2.228,2.228,0,0,0,.662,1.685,2.382,2.382,0,0,0,1.705.622h6.46a2.382,2.382,0,0,0,1.7-.622,2.227,2.227,0,0,0,.662-1.686c0-.27-.009-.537-.027-.792Zm0,0" transform="translate(0 -240.836)" fill="#171717"/>
</svg>
