<?xml version="1.0" standalone="no"?>
<!DOCTYPE svg PUBLIC "-//W3C//DTD SVG 1.1//EN" "http://www.w3.org/Graphics/SVG/1.1/DTD/svg11.dtd">
<svg id="S_Rotate_16_N" viewBox="0 0 16 16" version="1.1"
	xmlns="http://www.w3.org/2000/svg" xmlns:xlink="http://www.w3.org/1999/xlink" xml:space="preserve"
	x="0px" y="0px" width="16px" height="16px"
>
	<g id="Layer%201">
		<g id="S_Rotate_16_N_lt">
			<g>
				<path d="M 14.0037 2.771 L 13.7476 4.2588 C 12.7517 2.6509 11.1194 1.4619 9.1392 1.105 C 8.7363 1.0325 8.3347 0.9976 7.9395 0.9976 C 4.675 0.9976 1.7847 3.3867 1.1978 6.7825 C 0.5396 10.5898 3.0295 14.2178 6.7588 14.8896 C 7.1619 14.9622 7.5627 14.9976 7.9583 14.9976 C 11.2227 14.9976 14.1135 12.6084 14.7007 9.2124 L 14.7339 8.8362 C 14.7827 8.5466 14.5308 8.2773 14.2354 8.2773 C 13.9409 8.2773 13.7466 8.5168 13.6782 8.8362 L 13.6201 9.0176 C 13.1333 11.834 10.7522 13.8777 7.9583 13.8777 C 7.6226 13.8777 7.2832 13.8472 6.9495 13.7869 C 5.4341 13.5142 4.1135 12.6553 3.2314 11.3694 C 2.3494 10.0835 2.0105 8.5237 2.2781 6.9771 C 2.7646 4.1611 5.1455 2.1172 7.9395 2.1172 C 8.2749 2.1172 8.6147 2.1479 8.9487 2.208 C 10.5967 2.5049 11.96 3.4917 12.7988 4.8271 L 11.4624 4.5874 C 11.1655 4.5342 10.8794 4.7385 10.8271 5.0415 C 10.7747 5.3447 10.9751 5.6367 11.272 5.6904 L 13.9724 6.1763 C 14.2695 6.23 14.5552 6.0254 14.6079 5.7222 L 15.084 2.9653 C 15.1362 2.6621 14.936 2.3701 14.6392 2.3169 C 14.3423 2.2632 14.0562 2.4678 14.0037 2.771 Z" fill="#666666"/>
			</g>
			<path id="Ellipse" d="M 7.02 8 C 7.02 7.4587 7.4587 7.02 8 7.02 C 8.5413 7.02 8.98 7.4587 8.98 8 C 8.98 8.5413 8.5413 8.98 8 8.98 C 7.4587 8.98 7.02 8.5413 7.02 8 Z" fill="#666666"/>
		</g>
	</g>
</svg>