<svg id="Group_4466" data-name="Group 4466" xmlns="http://www.w3.org/2000/svg" width="19.252" height="23.076" viewBox="0 0 19.252 23.076">
  <path id="Path_4247" data-name="Path 4247" d="M92.59,11.116a5.378,5.378,0,0,0,3.93-1.628,5.378,5.378,0,0,0,1.628-3.93,5.378,5.378,0,0,0-1.628-3.93,5.557,5.557,0,0,0-7.859,0,5.378,5.378,0,0,0-1.628,3.929,5.378,5.378,0,0,0,1.628,3.93A5.379,5.379,0,0,0,92.59,11.116Zm0,0" transform="translate(-83.109 0)" fill="#171717"/>
  <path id="Path_4248" data-name="Path 4248" d="M19.205,253.914a13.727,13.727,0,0,0-.187-1.458,11.487,11.487,0,0,0-.359-1.466,7.241,7.241,0,0,0-.6-1.367,5.159,5.159,0,0,0-.909-1.184,4.007,4.007,0,0,0-1.305-.82,4.512,4.512,0,0,0-1.667-.3,1.691,1.691,0,0,0-.9.383c-.271.177-.587.381-.941.607a5.393,5.393,0,0,1-1.218.536,4.728,4.728,0,0,1-2.978,0,5.38,5.38,0,0,1-1.217-.536c-.35-.224-.667-.428-.942-.607a1.689,1.689,0,0,0-.9-.383,4.506,4.506,0,0,0-1.666.3,4,4,0,0,0-1.306.82,5.16,5.16,0,0,0-.908,1.184,7.256,7.256,0,0,0-.6,1.367,11.515,11.515,0,0,0-.358,1.466,13.68,13.68,0,0,0-.187,1.459c-.031.442-.046.9-.046,1.363a3.832,3.832,0,0,0,1.138,2.9,4.1,4.1,0,0,0,2.932,1.07H15.181a4.1,4.1,0,0,0,2.932-1.07,3.83,3.83,0,0,0,1.138-2.9c0-.465-.016-.924-.047-1.363Zm0,0" transform="translate(0 -236.17)" fill="#171717"/>
</svg>
