<svg xmlns="http://www.w3.org/2000/svg" width="102.792" height="69.721" viewBox="0 0 102.792 69.721">
  <g id="Group_21827" data-name="Group 21827" transform="translate(-136.104 -305.639)">
    <path id="Subtraction_8" data-name="Subtraction 8" d="M2235.042,2310.721h0l-13.919-13.919a19.714,19.714,0,0,1,18.922-5.138,16.552,16.552,0,0,0,.894,13.163l-5.9,5.895Zm-23.2-21.479h0l-9.279-9.279a45.927,45.927,0,0,1,64.963,0l-3.237,3.237a16.523,16.523,0,0,0-16-.782,32.865,32.865,0,0,0-36.446,6.824Zm-18.562-16.837h0l-9.279-9.28a72.147,72.147,0,0,1,102.084,0l-9.28,9.279a59.067,59.067,0,0,0-83.524,0Z" transform="translate(-2047.542 -1935.861)" fill="#2f2e3a" stroke="#2f2e3a" stroke-linecap="round" stroke-linejoin="bevel" stroke-width="1"/>
    <g id="Group_21826" data-name="Group 21826" transform="translate(-15 17.359)">
      <circle id="Ellipse_68" data-name="Ellipse 68" cx="13" cy="13" r="13" transform="translate(210 331.5)" fill="#2f2e3a" stroke="#2f2e3a" stroke-linecap="round" stroke-linejoin="bevel" stroke-width="1"/>
      <g id="Group_21825" data-name="Group 21825">
        <line id="Line_115" data-name="Line 115" y1="11.699" x2="11.699" transform="translate(217.5 339)" fill="none" stroke="#e6af05" stroke-linecap="round" stroke-width="2.5"/>
        <line id="Line_116" data-name="Line 116" x2="11.699" y2="11.699" transform="translate(217.5 339)" fill="none" stroke="#e6af05" stroke-linecap="round" stroke-width="2.5"/>
      </g>
    </g>
  </g>
</svg>
